<svg width="38" height="39" viewBox="0 0 38 39" fill="none" xmlns="http://www.w3.org/2000/svg">
<path fill-rule="evenodd" clip-rule="evenodd" d="M18.9998 34.7596C23.0311 34.7596 26.8973 33.1582 29.7478 30.3076C32.5984 27.4571 34.1998 23.5909 34.1998 19.5596C34.1998 15.5283 32.5984 11.6621 29.7478 8.8116C26.8973 5.96104 23.0311 4.35962 18.9998 4.35962C14.9685 4.35962 11.1023 5.96104 8.25178 8.8116C5.40123 11.6621 3.7998 15.5283 3.7998 19.5596C3.7998 23.5909 5.40123 27.4571 8.25178 30.3076C11.1023 33.1582 14.9685 34.7596 18.9998 34.7596ZM26.0431 17.1029C26.3892 16.7446 26.5807 16.2646 26.5764 15.7665C26.5721 15.2683 26.3722 14.7917 26.02 14.4395C25.6677 14.0872 25.1911 13.8874 24.693 13.883C24.1948 13.8787 23.7149 14.0702 23.3565 14.4163L17.0998 20.673L14.6431 18.2163C14.2848 17.8702 13.8048 17.6787 13.3066 17.683C12.8085 17.6874 12.3319 17.8872 11.9796 18.2395C11.6274 18.5917 11.4276 19.0683 11.4232 19.5665C11.4189 20.0646 11.6104 20.5446 11.9565 20.9029L15.7565 24.7029C16.1128 25.0591 16.596 25.2592 17.0998 25.2592C17.6036 25.2592 18.0868 25.0591 18.4431 24.7029L26.0431 17.1029Z" fill="#2DA456"/>
</svg>
