<svg width="18" height="17" viewBox="0 0 18 17" fill="none" xmlns="http://www.w3.org/2000/svg">
<path d="M14 13.3583C13.5121 13.1861 13.0896 12.8668 12.7907 12.4444C12.4918 12.0221 12.3313 11.5174 12.3313 10.9999C12.3313 10.4825 12.4918 9.97783 12.7907 9.55545C13.0896 9.13306 13.5121 8.81378 14 8.64162L14 0.166615H15.6667L15.6667 8.64162C16.1547 8.81378 16.5772 9.13306 16.8761 9.55545C17.1749 9.97783 17.3354 10.4825 17.3354 10.9999C17.3354 11.5174 17.1749 12.0221 16.8761 12.4444C16.5772 12.8668 16.1547 13.1861 15.6667 13.3583V16.8333H14V13.3583ZM8.16672 8.35828C7.67877 8.18611 7.25624 7.86683 6.95737 7.44445C6.6585 7.02207 6.49801 6.51738 6.49801 5.99995C6.49801 5.48252 6.6585 4.97783 6.95737 4.55545C7.25624 4.13306 7.67877 3.81378 8.16672 3.64162L8.16672 0.166615H9.83338L9.83338 3.64162C10.3213 3.81378 10.7439 4.13306 11.0427 4.55545C11.3416 4.97783 11.5021 5.48252 11.5021 5.99995C11.5021 6.51738 11.3416 7.02207 11.0427 7.44445C10.7439 7.86683 10.3213 8.18611 9.83338 8.35828L9.83338 16.8333H8.16672L8.16672 8.35828ZM2.33338 13.3583C1.84544 13.1861 1.42291 12.8668 1.12404 12.4444C0.825169 12.0221 0.664673 11.5174 0.664673 10.9999C0.664673 10.4825 0.825169 9.97783 1.12404 9.55545C1.42291 9.13306 1.84544 8.81378 2.33338 8.64162L2.33338 0.166615H4.00005L4.00005 8.64162C4.48799 8.81378 4.91052 9.13306 5.20939 9.55545C5.50826 9.97783 5.66876 10.4825 5.66876 10.9999C5.66876 11.5174 5.50826 12.0221 5.20939 12.4444C4.91052 12.8668 4.48799 13.1861 4.00005 13.3583V16.8333H2.33338L2.33338 13.3583Z" fill="white"/>
</svg>
