<svg width="20" height="17" viewBox="0 0 20 17" fill="none" xmlns="http://www.w3.org/2000/svg">
<path d="M2.67413 2.2177C2.27948 2.61234 1.96642 3.08086 1.75284 3.5965C1.53925 4.11213 1.42932 4.66479 1.42932 5.22291C1.42932 5.78103 1.53925 6.33368 1.75284 6.84932C1.96642 7.36495 2.27948 7.83347 2.67413 8.22812L9.92933 15.4833L17.1845 8.22812C17.9816 7.43109 18.4293 6.35008 18.4293 5.22291C18.4293 4.09573 17.9816 3.01473 17.1845 2.2177C16.3875 1.42066 15.3065 0.972896 14.1793 0.972896C13.0521 0.972896 11.9711 1.42066 11.1741 2.2177L9.92933 3.46247L8.68455 2.2177C8.28991 1.82304 7.82139 1.50999 7.30575 1.2964C6.79012 1.08282 6.23746 0.972885 5.67934 0.972885C5.12122 0.972885 4.56857 1.08282 4.05293 1.2964C3.5373 1.50999 3.06878 1.82304 2.67413 2.2177Z" stroke="white" stroke-opacity="0.9" stroke-width="1.88888" stroke-linecap="round" stroke-linejoin="round"/>
</svg>
