<svg width="174" height="26" viewBox="0 0 174 26" fill="none" xmlns="http://www.w3.org/2000/svg">
<path d="M8.48 25.21C6.94 25.21 5.56 24.96 4.34 24.46C3.12 23.96 2.14 23.22 1.4 22.24C0.68 21.26 0.3 20.08 0.26 18.7H5.72C5.8 19.48 6.07 20.08 6.53 20.5C6.99 20.9 7.59 21.1 8.33 21.1C9.09 21.1 9.69 20.93 10.13 20.59C10.57 20.23 10.79 19.74 10.79 19.12C10.79 18.6 10.61 18.17 10.25 17.83C9.91 17.49 9.48 17.21 8.96 16.99C8.46 16.77 7.74 16.52 6.8 16.24C5.44 15.82 4.33 15.4 3.47 14.98C2.61 14.56 1.87 13.94 1.25 13.12C0.63 12.3 0.32 11.23 0.32 9.91C0.32 7.95 1.03 6.42 2.45 5.32C3.87 4.2 5.72 3.64 8 3.64C10.32 3.64 12.19 4.2 13.61 5.32C15.03 6.42 15.79 7.96 15.89 9.94H10.34C10.3 9.26 10.05 8.73 9.59 8.35C9.13 7.95 8.54 7.75 7.82 7.75C7.2 7.75 6.7 7.92 6.32 8.26C5.94 8.58 5.75 9.05 5.75 9.67C5.75 10.35 6.07 10.88 6.71 11.26C7.35 11.64 8.35 12.05 9.71 12.49C11.07 12.95 12.17 13.39 13.01 13.81C13.87 14.23 14.61 14.84 15.23 15.64C15.85 16.44 16.16 17.47 16.16 18.73C16.16 19.93 15.85 21.02 15.23 22C14.63 22.98 13.75 23.76 12.59 24.34C11.43 24.92 10.06 25.21 8.48 25.21ZM35.847 8.26V25H30.717V22.72C30.197 23.46 29.487 24.06 28.587 24.52C27.707 24.96 26.727 25.18 25.647 25.18C24.367 25.18 23.237 24.9 22.257 24.34C21.277 23.76 20.517 22.93 19.977 21.85C19.437 20.77 19.167 19.5 19.167 18.04V8.26H24.267V17.35C24.267 18.47 24.557 19.34 25.137 19.96C25.717 20.58 26.497 20.89 27.477 20.89C28.477 20.89 29.267 20.58 29.847 19.96C30.427 19.34 30.717 18.47 30.717 17.35V8.26H35.847ZM42.1119 6.52C41.2119 6.52 40.4719 6.26 39.8919 5.74C39.3319 5.2 39.0519 4.54 39.0519 3.76C39.0519 2.96 39.3319 2.3 39.8919 1.78C40.4719 1.24 41.2119 0.969998 42.1119 0.969998C42.9919 0.969998 43.7119 1.24 44.2719 1.78C44.8519 2.3 45.1419 2.96 45.1419 3.76C45.1419 4.54 44.8519 5.2 44.2719 5.74C43.7119 6.26 42.9919 6.52 42.1119 6.52ZM44.6619 8.26V25H39.5319V8.26H44.6619ZM55.9095 20.2L59.5395 8.26H64.9995L59.0595 25H52.7295L46.7895 8.26H52.2795L55.9095 20.2ZM69.7388 6.52C68.8388 6.52 68.0988 6.26 67.5188 5.74C66.9588 5.2 66.6788 4.54 66.6788 3.76C66.6788 2.96 66.9588 2.3 67.5188 1.78C68.0988 1.24 68.8388 0.969998 69.7388 0.969998C70.6188 0.969998 71.3388 1.24 71.8988 1.78C72.4788 2.3 72.7688 2.96 72.7688 3.76C72.7688 4.54 72.4788 5.2 71.8988 5.74C71.3388 6.26 70.6188 6.52 69.7388 6.52ZM72.2888 8.26V25H67.1588V8.26H72.2888Z" fill="white"/>
<path d="M89.9839 25.21C88.4439 25.21 87.0639 24.96 85.8439 24.46C84.6239 23.96 83.6439 23.22 82.9039 22.24C82.1839 21.26 81.8039 20.08 81.7639 18.7H87.2239C87.3039 19.48 87.5739 20.08 88.0339 20.5C88.4939 20.9 89.0939 21.1 89.8339 21.1C90.5939 21.1 91.1939 20.93 91.6339 20.59C92.0739 20.23 92.2939 19.74 92.2939 19.12C92.2939 18.6 92.1139 18.17 91.7539 17.83C91.4139 17.49 90.9839 17.21 90.4639 16.99C89.9639 16.77 89.2439 16.52 88.3039 16.24C86.9439 15.82 85.8339 15.4 84.9739 14.98C84.1139 14.56 83.3739 13.94 82.7539 13.12C82.1339 12.3 81.8239 11.23 81.8239 9.91C81.8239 7.95 82.5339 6.42 83.9539 5.32C85.3739 4.2 87.2239 3.64 89.5039 3.64C91.8239 3.64 93.6939 4.2 95.1139 5.32C96.5339 6.42 97.2939 7.96 97.3939 9.94H91.8439C91.8039 9.26 91.5539 8.73 91.0939 8.35C90.6339 7.95 90.0439 7.75 89.3239 7.75C88.7039 7.75 88.2039 7.92 87.8239 8.26C87.4439 8.58 87.2539 9.05 87.2539 9.67C87.2539 10.35 87.5739 10.88 88.2139 11.26C88.8539 11.64 89.8539 12.05 91.2139 12.49C92.5739 12.95 93.6739 13.39 94.5139 13.81C95.3739 14.23 96.1139 14.84 96.7339 15.64C97.3539 16.44 97.6639 17.47 97.6639 18.73C97.6639 19.93 97.3539 21.02 96.7339 22C96.1339 22.98 95.2539 23.76 94.0939 24.34C92.9339 24.92 91.5639 25.21 89.9839 25.21ZM116.601 16.36C116.601 16.84 116.571 17.34 116.511 17.86H104.901C104.981 18.9 105.311 19.7 105.891 20.26C106.491 20.8 107.221 21.07 108.081 21.07C109.361 21.07 110.251 20.53 110.751 19.45H116.211C115.931 20.55 115.421 21.54 114.681 22.42C113.961 23.3 113.051 23.99 111.951 24.49C110.851 24.99 109.621 25.24 108.261 25.24C106.621 25.24 105.161 24.89 103.881 24.19C102.601 23.49 101.601 22.49 100.881 21.19C100.161 19.89 99.8009 18.37 99.8009 16.63C99.8009 14.89 100.151 13.37 100.851 12.07C101.571 10.77 102.571 9.77 103.851 9.07C105.131 8.37 106.601 8.02 108.261 8.02C109.881 8.02 111.321 8.36 112.581 9.04C113.841 9.72 114.821 10.69 115.521 11.95C116.241 13.21 116.601 14.68 116.601 16.36ZM111.351 15.01C111.351 14.13 111.051 13.43 110.451 12.91C109.851 12.39 109.101 12.13 108.201 12.13C107.341 12.13 106.611 12.38 106.011 12.88C105.431 13.38 105.071 14.09 104.931 15.01H111.351ZM124.437 11.05C125.037 10.13 125.787 9.41 126.687 8.89C127.587 8.35 128.587 8.08 129.687 8.08V13.51H128.277C126.997 13.51 126.037 13.79 125.397 14.35C124.757 14.89 124.437 15.85 124.437 17.23V25H119.307V8.26H124.437V11.05ZM134.719 6.52C133.819 6.52 133.079 6.26 132.499 5.74C131.939 5.2 131.659 4.54 131.659 3.76C131.659 2.96 131.939 2.3 132.499 1.78C133.079 1.24 133.819 0.969998 134.719 0.969998C135.599 0.969998 136.319 1.24 136.879 1.78C137.459 2.3 137.749 2.96 137.749 3.76C137.749 4.54 137.459 5.2 136.879 5.74C136.319 6.26 135.599 6.52 134.719 6.52ZM137.269 8.26V25H132.139V8.26H137.269ZM156.767 16.36C156.767 16.84 156.737 17.34 156.677 17.86H145.067C145.147 18.9 145.477 19.7 146.057 20.26C146.657 20.8 147.387 21.07 148.247 21.07C149.527 21.07 150.417 20.53 150.917 19.45H156.377C156.097 20.55 155.587 21.54 154.847 22.42C154.127 23.3 153.217 23.99 152.117 24.49C151.017 24.99 149.787 25.24 148.427 25.24C146.787 25.24 145.327 24.89 144.047 24.19C142.767 23.49 141.767 22.49 141.047 21.19C140.327 19.89 139.967 18.37 139.967 16.63C139.967 14.89 140.317 13.37 141.017 12.07C141.737 10.77 142.737 9.77 144.017 9.07C145.297 8.37 146.767 8.02 148.427 8.02C150.047 8.02 151.487 8.36 152.747 9.04C154.007 9.72 154.987 10.69 155.687 11.95C156.407 13.21 156.767 14.68 156.767 16.36ZM151.517 15.01C151.517 14.13 151.217 13.43 150.617 12.91C150.017 12.39 149.267 12.13 148.367 12.13C147.507 12.13 146.777 12.38 146.177 12.88C145.597 13.38 145.237 14.09 145.097 15.01H151.517ZM166.283 25.24C164.823 25.24 163.523 24.99 162.383 24.49C161.243 23.99 160.343 23.31 159.683 22.45C159.023 21.57 158.653 20.59 158.573 19.51H163.643C163.703 20.09 163.973 20.56 164.453 20.92C164.933 21.28 165.523 21.46 166.223 21.46C166.863 21.46 167.353 21.34 167.693 21.1C168.053 20.84 168.233 20.51 168.233 20.11C168.233 19.63 167.983 19.28 167.483 19.06C166.983 18.82 166.173 18.56 165.053 18.28C163.853 18 162.853 17.71 162.053 17.41C161.253 17.09 160.563 16.6 159.983 15.94C159.403 15.26 159.113 14.35 159.113 13.21C159.113 12.25 159.373 11.38 159.893 10.6C160.433 9.8 161.213 9.17 162.233 8.71C163.273 8.25 164.503 8.02 165.923 8.02C168.023 8.02 169.673 8.54 170.873 9.58C172.093 10.62 172.793 12 172.973 13.72H168.233C168.153 13.14 167.893 12.68 167.453 12.34C167.033 12 166.473 11.83 165.773 11.83C165.173 11.83 164.713 11.95 164.393 12.19C164.073 12.41 163.913 12.72 163.913 13.12C163.913 13.6 164.163 13.96 164.663 14.2C165.183 14.44 165.983 14.68 167.063 14.92C168.303 15.24 169.313 15.56 170.093 15.88C170.873 16.18 171.553 16.68 172.133 17.38C172.733 18.06 173.043 18.98 173.063 20.14C173.063 21.12 172.783 22 172.223 22.78C171.683 23.54 170.893 24.14 169.853 24.58C168.833 25.02 167.643 25.24 166.283 25.24Z" fill="#FF0000"/>
</svg>
